<svg id="screenshot" viewBox="2110.666666666667 605.3896722108124 475.6595641836534 141.98523044806325" version="1.1" xmlns="http://www.w3.org/2000/svg" xmlns:xlink="http://www.w3.org/1999/xlink" style="-webkit-print-color-adjust: exact;"><g id="shape-9a451f70-c75d-11ec-a697-bf76f48b34b7" class="ign-icon icon-logo" preserveAspectRatio="xMidYMid meet" style="cursor: inherit; user-select: none; aspect-ratio: 73 / 22; width: auto; height: 100%; display: inline-block; flex-shrink: 0; font-size: 1.5rem;"><g id="shape-9a451f71-c75d-11ec-a697-bf76f48b34b7" class="jsx-2673782124"><g id="shape-9a451f72-c75d-11ec-a697-bf76f48b34b7"><path fill-rule="evenodd" stroke="none" class="jsx-2673782124 ign-path" d="M2364.728031001019,688.9515829751577L2364.728031001019,663.401266940108L2433.972296933457,663.4192998859415C2441.0021913638166,663.4192998859415,2446.7347070373116,669.0563535706702,2446.7347070373116,676.0119657640213L2446.7347070373116,706.3784823851125C2446.7347070373116,722.0071508223463,2434.110053983948,734.9424400745482,2418.061924637888,734.9525384722809L2373.7324171386463,734.9835547755746C2340.878143184973,734.9835547755746,2314.2972017413113,708.7415007030571,2314.2972017413113,676.3105889580471C2314.2972017413113,643.9056444473002,2341.0406798470476,617.6390658021531,2373.784165409529,617.6390658021531L2442.418372710381,617.6390658021531L2442.418372710381,644.5959402645759L2373.7695900918116,644.5959402645759C2356.07131320388,644.5959402645759,2341.5384938652223,658.7964108173377,2341.5384938652223,676.3105889580471C2341.5384938652223,693.7995212342602,2355.8584850169655,708.0086477048916,2373.7236693289124,708.0064835955883L2419.5174658900514,708.0064835955883L2419.5174658900514,688.9515829751577L2364.728031001019,688.9515829751577ZZM2305.2950025561163,617.493072220433C2305.2950025561163,617.493072220433,2305.3103086040483,626.1185218768227,2305.3103086040483,626.1733415907153L2305.3103086040483,735.031594158961L2291.651397291308,735.031594158961L2291.0347783262405,735.031594158961C2284.0573631588877,735.031594158961,2278.35618900192,729.4284419969243,2278.35618900192,722.5233217922367L2278.35618900192,637.557809913529L2278.356917898761,617.493072220433L2305.2950025561163,617.493072220433ZZM2573.6906430347885,617.5600099856371C2580.6702454164865,617.5600099856371,2586.3262308503204,623.1696539043054,2586.3262308503204,630.0733316550962L2586.3262308503204,707.989460775167C2586.3262308503204,723.6347194186989,2573.4880186179166,736.3197133562347,2557.6782304196745,736.3197133562347L2557.189162377861,736.3197133562347C2546.8327351965813,736.3197133562347,2537.798463502736,731.2243647421918,2532.7649292563387,722.8715712273353L2487.1832330329157,643.750129797366C2486.8085962950368,643.0605553498577,2486.151161725973,642.8564240649197,2485.5841046031765,642.8564240649197C2484.896786049357,642.8564240649197,2484.29401481472,643.2315062221995,2483.976959093913,643.7869165394578C2483.824626725705,644.0271134563915,2483.7072803582278,644.3134744030536,2483.7072803582278,644.6193107754128L2483.7152974377486,735.0314500408111L2469.371254523623,735.0314500408111C2462.3960260467934,735.0314500408111,2456.7159893743965,729.4282978787741,2456.7159893743965,722.5238987841827L2456.7159893743965,644.6193107754128C2456.7159893743965,628.9740520799468,2469.5345190348967,616.2905007521105,2485.343579122029,616.2905007521105L2485.830460211408,616.2905007521105C2496.1890769642273,616.2905007521105,2505.430344360706,621.7832921165945,2510.4675217817567,630.1375284229206L2555.7729810312967,708.7461171579638C2556.3407636460993,709.4840192251596,2556.8538855455795,709.7444129375591,2557.4318748114415,709.7444129375591C2558.1140913492814,709.7444129375591,2558.7081147741847,709.3815930276429,2559.031000622077,708.8427729166832C2559.1745877996555,708.6271004944766,2559.2226928958844,708.3731985906435,2559.243100959794,708.1027067401839L2559.2307099754057,617.5600099856371L2573.6906430347885,617.5600099856371ZZ" style="fill: rgb(255, 255, 255); fill-opacity: 1;"/></g><g id="shape-9a451f73-c75d-11ec-a697-bf76f48b34b7"><path fill-rule="evenodd" stroke="none" class="jsx-2673782124 dpad-path" d="M2142.843752891881,650.6258927453572C2135.781060696584,651.3933686359829,2129.332800880595,652.4385498150733,2123.633813230813,653.7289772398009C2130.0441721396737,637.4965706059494,2143.11416131014,624.5620025677116,2159.5165169729758,618.217341671411C2158.2133080890217,623.8565593875416,2157.1564553371218,630.2387285255378,2156.378757503664,637.2296850849845C2151.001927774002,640.7431959989352,2146.3925915839345,645.3047735710483,2142.843752891881,650.6258927453572ZZM2208.3973438261883,637.0759014108866C2207.5766431743887,630.1224530152334,2206.488449167873,623.7799560464651,2205.169934235988,618.1710334456305C2221.6305987650967,624.4969402340677,2234.751608566774,637.4545901573334,2241.1809179292004,653.7281114922101C2235.4797437722327,652.4384056969233,2229.0322127745103,651.3932245178329,2221.9695206054043,650.6257483675348C2218.415579635464,645.2988587544279,2213.8011416913287,640.7343959629162,2208.417023255166,637.2201636791973C2208.409005651825,637.1711144300699,2208.4068192232116,637.1249504003416,2208.3973438261883,637.0759014108866ZZM2156.3782473020656,715.5316439668912C2157.1552162386834,722.5240429023326,2158.212797887424,728.906212092263,2159.515277874537,734.5447085165273C2143.0779369967013,728.1863427112288,2129.988997136951,715.2084960184658,2123.5932155101373,698.9277615052546C2129.202552881884,700.213860971047,2135.5713665303656,701.2770748362999,2142.6828927187335,702.1051411133204C2142.7353709340987,702.1145181412857,2142.7849335620995,702.1166822505887,2142.836682880624,702.1260592785533C2146.386250469518,707.4500634125899,2150.997773088199,712.0159689436367,2156.3782473020656,715.5316439668912ZZM2222.128339972162,702.1052854911428C2229.234035221519,701.2829896529203,2235.602119868396,700.2219396372988,2241.2165592299298,698.9351188017384C2234.805471502801,715.2548044260164,2221.664782534054,728.252847654573,2205.171318956648,734.5902955543103C2206.4883760948514,728.9842581728745,2207.576570101366,722.6453677932737,2208.3972710150774,715.6948046689539C2208.4074750470313,715.6428702004276,2208.4096617375544,715.5938209513,2208.418407975827,715.5418864827737C2213.805441999353,712.0262114595199,2218.422795268943,707.4581423385133,2221.976007342042,702.1262033967038C2222.0277566605664,702.1175477385069,2222.076590653637,702.114662519108,2222.128339972162,702.1052854911428ZZM2254.142816595855,664.7752943175109L2254.142816595855,687.8572803580286C2243.1172909245906,692.902136983408,2226.6828653722087,694.9196467078306,2221.1340235834496,695.5558439472774C2219.7958294844957,695.8061392619435,2218.5450988159064,695.9244345556632,2217.3351845370476,695.9244345556632L2199.6675210545322,676.3819266633592L2217.3351845370476,656.8372551810966C2218.3534075897414,656.8372551810966,2219.424108857802,656.9353534196788,2220.6077838980227,657.1358783751224C2226.2878210942417,657.7360099825731,2242.9984859776996,659.6712903049441,2254.142816595855,664.7752943175109ZZM2147.4823161952427,656.8372551810966L2165.145606558621,676.3819266633592L2147.4823161952427,695.9244345556632C2146.269486590928,695.9244345556632,2145.015111700045,695.8061392619435,2143.6805615614753,695.5558439472774C2138.13390646324,694.9153190085682,2121.6951078964858,692.902136983408,2110.666666666667,687.8515099192306L2110.666666666667,664.7803436462135C2121.8131838417708,659.6712903049441,2138.525306518912,657.7360099825731,2144.2016994928354,657.1358783751224C2145.3933921363987,656.9353534196788,2146.461177817094,656.8372551810966,2147.4823161952427,656.8372551810966ZZM2162.6601801662173,710.9515286459106L2182.4087503661453,693.4662029588634L2202.155133875549,710.9515286459106C2202.155133875549,712.1474641615492,2202.031955809522,713.3881207077092,2201.779040129718,714.7110071752653C2201.136910822855,720.197306783118,2199.092447376035,736.4636149396614,2193.9933147711326,747.3749026588756L2170.679870934379,747.3749026588756C2165.5180560821564,736.3496476048766,2163.5647005499077,719.8085193792664,2162.9575567199545,714.1902197504668C2162.757119255517,713.0209730985306,2162.6601801662173,711.956316493743,2162.6601801662173,710.9515286459106ZZM2170.679870934379,605.3896722108124L2193.9933147711326,605.3896722108124C2199.092447376035,616.3067302735245,2201.136910822855,632.5701533924397,2201.779040129718,638.0600595894595C2202.031955809522,639.3822244275747,2202.155133875549,640.6163894248415,2202.155133875549,641.815210159879L2182.4087503661453,659.3048635461886L2162.6601801662173,641.815210159879C2162.6601801662173,640.813307531446,2162.757119255517,639.7508150359612,2162.9575567199545,638.5786829049542C2163.5647005499077,632.9582191668509,2165.5180560821564,616.41853365481,2170.679870934379,605.3896722108124ZZ" style="fill: rgb(255, 255, 255); fill-opacity: 1;"/></g></g></g></svg>